<svg width="40" height="40" viewBox="0 0 40 40" fill="none" xmlns="http://www.w3.org/2000/svg">
<g clip-path="url(#clip0_133656_1291)">
<path d="M0.8225 25.8325C2.07698 29.9336 4.61496 33.5236 8.06283 36.0741C11.5107 38.6246 15.6863 40.0007 19.975 40C31.035 40 40 31.045 40 20C40 8.955 31.035 1.49946e-06 19.9775 1.49946e-06C14.9007 -0.00196246 10.0128 1.9254 6.30364 5.39182C2.59446 8.85824 0.34116 13.6047 0 18.67L0.0075 18.685L10.7675 23.1075C11.738 22.465 12.8873 22.1472 14.05 22.2L18.95 15.09L18.9475 14.99C18.9495 12.9734 19.7513 11.0399 21.177 9.61376C22.6027 8.18758 24.5359 7.38515 26.5525 7.3825C28.5691 7.38515 30.5023 8.18758 31.928 9.61376C33.3537 11.0399 34.1555 12.9734 34.1575 14.99C34.1567 16.0033 33.9538 17.0063 33.5606 17.9402C33.1673 18.8741 32.5917 19.7202 31.8674 20.4289C31.1432 21.1376 30.2848 21.6946 29.3425 22.0674C28.4003 22.4402 27.3931 22.6213 26.38 22.6L19.37 27.6C19.3938 28.5262 19.1856 29.4436 18.7645 30.2688C18.3434 31.094 17.7226 31.8009 16.9587 32.3251C16.1948 32.8493 15.3119 33.1742 14.3904 33.2702C13.469 33.3662 12.5381 33.2304 11.6825 32.875C10.8613 32.5328 10.1346 31.998 9.56366 31.3157C8.99276 30.6334 8.59449 29.8237 8.4025 28.955L0.825 25.8325H0.8225Z" fill="white"/>
<path d="M12.17 31.7075C13.2116 32.1051 14.3671 32.0813 15.3914 31.6412C16.4158 31.2011 17.2284 30.3793 17.657 29.3501C18.0856 28.3209 18.0965 27.1652 17.6872 26.1282C17.278 25.0911 16.4809 24.2542 15.465 23.795C14.4577 23.3747 13.3276 23.3568 12.3075 23.745L14.865 24.805C15.2475 24.9642 15.5949 25.1972 15.8873 25.4907C16.1797 25.7842 16.4115 26.1324 16.5693 26.5154C16.7272 26.8984 16.8081 27.3088 16.8073 27.7231C16.8066 28.1374 16.7243 28.5475 16.565 28.93C16.4058 29.3125 16.1728 29.6598 15.8793 29.9523C15.5858 30.2447 15.2376 30.4764 14.8546 30.6343C14.4716 30.7922 14.0612 30.873 13.6469 30.8723C13.2326 30.8715 12.8225 30.7892 12.44 30.63L9.96503 29.605C10.4154 30.5533 11.2009 31.3014 12.17 31.705V31.7075ZM21.485 14.99C21.4857 16.3342 22.0196 17.6233 22.9697 18.5743C23.9197 19.5253 25.2083 20.0605 26.5525 20.0625C27.8968 20.0605 29.1853 19.5253 30.1354 18.5743C31.0854 17.6233 31.6194 16.3342 31.62 14.99C31.618 13.6466 31.0835 12.3588 30.1336 11.4089C29.1837 10.459 27.8959 9.92447 26.5525 9.92249C25.2092 9.92447 23.9214 10.459 22.9715 11.4089C22.0215 12.3588 21.487 13.6466 21.485 14.99ZM26.56 11.1725C27.0604 11.1728 27.5557 11.2717 28.0179 11.4635C28.48 11.6552 28.8998 11.9362 29.2534 12.2902C29.6069 12.6442 29.8873 13.0644 30.0785 13.5268C30.2696 13.9891 30.3679 14.4846 30.3675 14.985C30.3672 15.4853 30.2683 15.9807 30.0766 16.4428C29.8848 16.9049 29.6039 17.3248 29.2498 17.6783C28.8958 18.0319 28.4756 18.3123 28.0132 18.5034C27.5509 18.6946 27.0554 18.7928 26.555 18.7925C25.5446 18.7918 24.5757 18.3898 23.8617 17.6748C23.1476 16.9598 22.7469 15.9905 22.7475 14.98C22.7482 13.9695 23.1502 13.0007 23.8652 12.2866C24.5802 11.5726 25.5496 11.1718 26.56 11.1725Z" fill="white"/>
</g>
<defs>
<clipPath id="clip0_133656_1291">
<rect width="40" height="40" fill="white"/>
</clipPath>
</defs>
</svg>
